<svg width="1440" height="1180" viewBox="0 0 1440 1180" fill="none" xmlns="http://www.w3.org/2000/svg">
  <rect width="1440" height="1180" fill="#08111D"/>
  <circle cx="250" cy="250" r="224" fill="#1D4ED8" fill-opacity="0.28"/>
  <circle cx="1196" cy="222" r="242" fill="#0F766E" fill-opacity="0.2"/>
  <circle cx="1076" cy="944" r="304" fill="#7C3AED" fill-opacity="0.14"/>
  <rect x="142" y="172" width="1156" height="744" rx="36" fill="#0C1726" stroke="#7DD3FC" stroke-opacity="0.28" stroke-width="3"/>
  <rect x="192" y="242" width="352" height="238" rx="28" fill="#101F31"/>
  <rect x="226" y="282" width="144" height="18" rx="9" fill="#D7F3FF"/>
  <rect x="226" y="322" width="224" height="14" rx="7" fill="#4B6480"/>
  <rect x="226" y="356" width="194" height="14" rx="7" fill="#4B6480"/>
  <rect x="226" y="404" width="112" height="26" rx="13" fill="#38BDF8"/>
  <rect x="588" y="242" width="284" height="238" rx="28" fill="#101F31"/>
  <path d="M730 294L792 328L792 396L730 430L668 396V328L730 294Z" fill="#E879F9" fill-opacity="0.85"/>
  <path d="M730 316L770 338V384L730 406L690 384V338L730 316Z" fill="#111827"/>
  <rect x="624" y="438" width="214" height="12" rx="6" fill="#4B6480"/>
  <rect x="902" y="242" width="348" height="238" rx="28" fill="#101F31"/>
  <ellipse cx="1076" cy="326" rx="96" ry="34" fill="#34D399"/>
  <path d="M980 326V404C980 423 1023 438 1076 438C1129 438 1172 423 1172 404V326" fill="#14532D"/>
  <ellipse cx="1076" cy="404" rx="96" ry="34" fill="#22C55E"/>
  <rect x="192" y="532" width="1058" height="320" rx="30" fill="#101F31"/>
  <rect x="228" y="572" width="232" height="24" rx="12" fill="#D7F3FF"/>
  <rect x="228" y="628" width="976" height="58" rx="20" fill="#12263A"/>
  <rect x="264" y="650" width="170" height="14" rx="7" fill="#7DD3FC"/>
  <rect x="524" y="650" width="208" height="14" rx="7" fill="#5B6C86"/>
  <rect x="818" y="650" width="156" height="14" rx="7" fill="#34D399"/>
  <rect x="228" y="706" width="976" height="58" rx="20" fill="#12263A"/>
  <rect x="264" y="728" width="144" height="14" rx="7" fill="#E879F9"/>
  <rect x="524" y="728" width="254" height="14" rx="7" fill="#5B6C86"/>
  <rect x="818" y="728" width="122" height="14" rx="7" fill="#38BDF8"/>
  <circle cx="426" cy="360" r="12" fill="#34D399"/>
  <circle cx="542" cy="360" r="12" fill="#7DD3FC"/>
  <path d="M438 360H530" stroke="#4B6480" stroke-width="6" stroke-linecap="round"/>
  <circle cx="884" cy="360" r="12" fill="#7DD3FC"/>
  <circle cx="968" cy="360" r="12" fill="#34D399"/>
  <path d="M896 360H956" stroke="#4B6480" stroke-width="6" stroke-linecap="round"/>
</svg>
