<svg width="1440" height="1180" viewBox="0 0 1440 1180" fill="none" xmlns="http://www.w3.org/2000/svg">
  <rect width="1440" height="1180" fill="#071821"/>
  <circle cx="252" cy="200" r="218" fill="#0F766E" fill-opacity="0.32"/>
  <circle cx="1184" cy="252" r="254" fill="#0369A1" fill-opacity="0.26"/>
  <circle cx="1014" cy="934" r="312" fill="#F97316" fill-opacity="0.14"/>
  <path d="M104 942C256 802 424 734 608 734C792 734 958 802 1108 942" stroke="#67E8F9" stroke-opacity="0.24" stroke-width="10" stroke-linecap="round"/>
  <path d="M178 1018C316 910 468 856 634 856C800 856 952 910 1090 1018" stroke="#67E8F9" stroke-opacity="0.16" stroke-width="8" stroke-linecap="round"/>
  <rect x="476" y="110" width="488" height="912" rx="56" fill="#091C28" stroke="#67E8F9" stroke-opacity="0.4" stroke-width="4"/>
  <rect x="508" y="144" width="424" height="844" rx="42" fill="#0D2431"/>
  <rect x="642" y="170" width="156" height="18" rx="9" fill="#1E3A4A"/>
  <rect x="554" y="234" width="144" height="40" rx="20" fill="#103646"/>
  <rect x="718" y="234" width="168" height="40" rx="20" fill="#103646"/>
  <rect x="554" y="308" width="332" height="174" rx="28" fill="#112D3E"/>
  <rect x="584" y="342" width="130" height="14" rx="7" fill="#D7F9FF"/>
  <rect x="584" y="376" width="204" height="12" rx="6" fill="#4A7286"/>
  <rect x="584" y="406" width="178" height="12" rx="6" fill="#4A7286"/>
  <rect x="584" y="444" width="118" height="24" rx="12" fill="#34D399"/>
  <rect x="554" y="514" width="332" height="132" rx="28" fill="#112D3E"/>
  <rect x="584" y="548" width="110" height="14" rx="7" fill="#D7F9FF"/>
  <rect x="584" y="580" width="212" height="12" rx="6" fill="#4A7286"/>
  <rect x="584" y="614" width="146" height="18" rx="9" fill="#F59E0B"/>
  <rect x="554" y="678" width="332" height="212" rx="28" fill="#0E2A39"/>
  <rect x="586" y="714" width="96" height="96" rx="20" fill="#14532D"/>
  <rect x="698" y="714" width="156" height="18" rx="9" fill="#D7F9FF"/>
  <rect x="698" y="748" width="132" height="12" rx="6" fill="#4A7286"/>
  <rect x="698" y="776" width="120" height="12" rx="6" fill="#4A7286"/>
  <rect x="698" y="818" width="114" height="24" rx="12" fill="#38BDF8"/>
  <circle cx="330" cy="382" r="62" fill="#0B2635" stroke="#34D399" stroke-opacity="0.5" stroke-width="3"/>
  <circle cx="330" cy="382" r="32" fill="#34D399"/>
  <circle cx="1126" cy="444" r="70" fill="#0B2635" stroke="#38BDF8" stroke-opacity="0.5" stroke-width="3"/>
  <path d="M1126 404V446L1156 464" stroke="#38BDF8" stroke-width="12" stroke-linecap="round" stroke-linejoin="round"/>
  <rect x="246" y="788" width="196" height="126" rx="28" fill="#0B2635" stroke="#67E8F9" stroke-opacity="0.25" stroke-width="2"/>
  <rect x="998" y="792" width="196" height="126" rx="28" fill="#0B2635" stroke="#67E8F9" stroke-opacity="0.25" stroke-width="2"/>
  <rect x="274" y="826" width="118" height="14" rx="7" fill="#D7F9FF"/>
  <rect x="274" y="858" width="146" height="12" rx="6" fill="#4A7286"/>
  <rect x="1028" y="826" width="108" height="14" rx="7" fill="#D7F9FF"/>
  <rect x="1028" y="858" width="128" height="12" rx="6" fill="#4A7286"/>
</svg>
