<svg width="1440" height="1180" viewBox="0 0 1440 1180" fill="none" xmlns="http://www.w3.org/2000/svg">
  <rect width="1440" height="1180" fill="#0E1420"/>
  <circle cx="210" cy="238" r="208" fill="#F97316" fill-opacity="0.28"/>
  <circle cx="1184" cy="250" r="264" fill="#22C55E" fill-opacity="0.18"/>
  <rect x="152" y="180" width="1136" height="720" rx="36" fill="#121B2A" stroke="#FDE68A" stroke-opacity="0.24" stroke-width="3"/>
  <rect x="152" y="180" width="1136" height="78" rx="36" fill="#1A2639"/>
  <circle cx="214" cy="219" r="10" fill="#FB7185"/>
  <circle cx="250" cy="219" r="10" fill="#FBBF24"/>
  <circle cx="286" cy="219" r="10" fill="#34D399"/>
  <rect x="202" y="308" width="320" height="540" rx="28" fill="#172335"/>
  <rect x="554" y="308" width="684" height="156" rx="28" fill="#172335"/>
  <rect x="554" y="494" width="214" height="170" rx="28" fill="#1F3B2F"/>
  <rect x="790" y="494" width="214" height="170" rx="28" fill="#3B2E1D"/>
  <rect x="1026" y="494" width="212" height="170" rx="28" fill="#1E3444"/>
  <rect x="554" y="694" width="684" height="154" rx="28" fill="#172335"/>
  <rect x="238" y="352" width="146" height="16" rx="8" fill="#F8FAFC"/>
  <rect x="238" y="392" width="194" height="12" rx="6" fill="#61748F"/>
  <rect x="238" y="430" width="162" height="12" rx="6" fill="#61748F"/>
  <rect x="238" y="480" width="232" height="42" rx="21" fill="#F59E0B"/>
  <rect x="590" y="344" width="154" height="16" rx="8" fill="#F8FAFC"/>
  <rect x="590" y="382" width="592" height="18" rx="9" fill="#3B4A61"/>
  <rect x="590" y="536" width="110" height="14" rx="7" fill="#DCFCE7"/>
  <rect x="826" y="536" width="110" height="14" rx="7" fill="#FEF3C7"/>
  <rect x="1062" y="536" width="110" height="14" rx="7" fill="#DBEAFE"/>
  <rect x="590" y="734" width="188" height="16" rx="8" fill="#F8FAFC"/>
  <rect x="590" y="774" width="592" height="18" rx="9" fill="#3B4A61"/>
</svg>
